<svg xmlns="http://www.w3.org/2000/svg" width="1323" height="793" viewBox="0 0 1323 793">
<g>
<path d="M 825.38 301.71 C819.57,303.86 816.47,304.31 805.50,304.58 C791.32,304.93 787.84,304.44 777.86,300.68 C763.39,295.22 750.97,284.75 745.32,273.25 C742.80,268.10 742.50,266.45 742.50,257.50 C742.50,248.61 742.81,246.88 745.25,241.89 C748.50,235.29 756.65,227.21 763.58,223.74 C774.30,218.37 778.53,217.51 794.00,217.54 C807.26,217.56 809.19,217.80 816.50,220.35 C820.90,221.89 826.97,224.55 830.00,226.27 C837.72,230.64 847.12,240.34 851.10,248.03 C854.24,254.10 854.45,255.11 854.45,264.50 C854.45,273.45 854.16,275.05 851.73,279.71 C846.42,289.86 837.73,297.12 825.38,301.71 ZM 690.36 350.41 C669.17,355.89 644.50,345.14 635.47,326.50 C632.93,321.24 632.57,319.39 632.57,311.50 C632.57,303.77 632.95,301.72 635.25,297.00 C643.02,281.07 658.77,271.88 678.50,271.76 C697.72,271.64 713.78,280.68 721.23,295.81 C724.19,301.83 724.50,303.31 724.50,311.50 C724.50,319.69 724.19,321.17 721.23,327.19 C715.61,338.60 704.92,346.64 690.36,350.41 ZM 565.12 362.75 C545.02,370.06 523.33,363.53 518.40,348.69 C512.64,331.37 528.36,310.52 552.50,303.45 C560.52,301.10 573.93,301.02 580.53,303.29 C600.46,310.13 603.40,332.27 586.65,349.38 C580.68,355.48 574.41,359.37 565.12,362.75 ZM 849.14 203.56 C837.46,206.03 825.05,204.33 812.35,198.50 C789.39,187.97 784.99,168.44 803.50,159.24 C824.67,148.71 861.83,158.99 869.58,177.53 C874.56,189.46 866.36,199.91 849.14,203.56 ZM 461.65 355.61 C454.25,357.58 449.06,357.32 444.02,354.75 C437.61,351.48 435.49,348.06 435.56,341.17 C435.64,333.90 438.46,328.37 445.87,320.97 C460.77,306.10 484.68,302.66 491.90,314.34 C499.88,327.25 483.32,349.83 461.65,355.61 ZM 1010.13 736.79 C1007.96,739.83 1002.62,743.29 1001.64,742.31 C1001.29,741.95 1001.00,740.15 1001.00,738.29 C1001.00,735.65 1002.02,733.83 1005.65,729.94 C1010.66,724.59 1010.88,723.34 1006.50,725.00 C1004.34,725.82 1003.21,725.71 1001.37,724.50 C1000.06,723.65 999.00,722.29 999.00,721.48 C999.00,719.36 998.20,719.62 994.35,723.00 C990.60,726.29 989.80,726.50 986.93,724.96 C984.50,723.66 984.51,721.75 986.95,714.66 C988.02,711.55 988.48,709.00 987.97,709.00 C986.66,709.00 979.60,718.13 978.09,721.77 C976.85,724.79 973.27,726.67 971.73,725.13 C971.29,724.69 971.39,723.10 971.96,721.60 C973.82,716.70 973.08,716.66 968.04,721.36 C965.32,723.91 962.19,726.00 961.10,726.00 C958.08,726.00 956.02,722.41 957.03,718.91 C958.19,714.85 957.05,715.33 953.23,720.53 C949.82,725.16 945.86,727.03 943.10,725.30 C940.88,723.91 940.58,719.71 942.44,716.12 C944.48,712.18 944.44,712.00 941.54,712.00 C940.02,712.00 938.62,712.85 937.90,714.19 C935.61,718.47 927.74,726.00 925.56,726.00 C922.89,726.00 921.00,724.22 921.00,721.70 C921.00,720.05 920.52,720.21 917.47,722.90 C912.30,727.43 908.00,726.66 908.00,721.21 L 908.00 718.82 L 904.75 721.56 C897.46,727.71 891.78,728.09 887.57,722.71 L 885.16 719.64 L 881.83 722.10 C878.00,724.93 873.59,727.00 871.38,727.00 C868.87,727.00 864.00,721.42 864.00,718.54 C864.00,714.54 867.71,708.15 871.29,705.96 C880.29,700.47 886.35,707.98 878.48,714.88 C876.55,716.58 873.82,718.26 872.43,718.61 C869.27,719.40 869.56,722.36 872.84,722.83 C875.99,723.28 881.84,719.02 885.49,713.62 C890.77,705.83 899.69,701.83 903.43,705.57 C905.49,707.63 905.41,709.32 903.17,711.35 C900.04,714.18 896.49,712.53 899.06,709.43 C900.52,707.66 899.70,706.52 897.55,707.34 C893.21,709.01 889.96,721.28 893.50,722.64 C897.79,724.28 904.33,719.53 910.00,710.64 C913.17,705.68 916.19,703.38 918.04,704.52 C918.42,704.76 917.51,708.68 916.01,713.23 C914.51,717.78 913.44,721.68 913.64,721.91 C914.39,722.79 918.50,718.20 922.62,711.87 C926.30,706.22 928.55,704.00 930.58,704.00 C931.64,704.00 930.79,708.50 928.55,714.67 C927.20,718.39 926.29,721.62 926.52,721.86 C927.34,722.68 930.21,719.56 935.76,711.81 C941.11,704.33 944.00,702.16 944.00,705.61 C944.00,707.23 944.15,707.22 950.72,705.40 C952.86,704.81 952.81,705.09 949.39,712.98 C947.44,717.48 946.14,721.47 946.50,721.83 C946.86,722.19 948.97,720.47 951.18,717.99 C953.39,715.52 956.51,712.05 958.10,710.28 C959.70,708.50 961.00,706.64 961.00,706.14 C961.00,704.98 965.26,703.84 966.10,704.78 C966.44,705.18 965.60,709.00 964.21,713.27 C962.83,717.54 962.00,721.33 962.35,721.69 C963.28,722.61 967.24,718.67 972.76,711.34 C976.22,706.75 978.14,705.04 979.88,705.02 C982.00,705.00 982.19,705.32 981.63,708.11 L 981.00 711.23 L 985.01 707.61 C989.26,703.77 990.87,703.27 992.80,705.20 C994.42,706.82 994.31,709.74 992.41,715.31 C989.94,722.57 991.19,722.87 996.39,716.24 C1002.37,708.63 1007.67,704.89 1013.23,704.34 C1020.23,703.64 1020.72,704.57 1018.12,713.53 C1016.89,717.76 1016.08,721.41 1016.32,721.65 C1016.56,721.89 1019.11,719.26 1021.99,715.79 C1027.62,709.03 1029.00,707.96 1029.00,710.36 C1029.00,712.07 1020.47,722.70 1016.75,725.62 C1015.44,726.66 1013.85,728.98 1013.22,730.79 C1012.59,732.61 1011.20,735.31 1010.13,736.79 ZM 1172.81 724.97 C1170.99,726.08 1168.82,726.98 1168.00,726.96 C1165.12,726.89 1161.02,723.93 1160.40,721.47 C1159.65,718.49 1159.49,718.46 1156.77,721.00 C1154.36,723.24 1151.96,723.56 1150.26,721.86 C1149.41,721.01 1148.33,721.38 1145.98,723.36 C1141.76,726.91 1138.45,726.80 1136.16,723.02 L 1134.34 720.03 L 1131.48 723.02 C1128.37,726.27 1124.96,726.86 1123.00,724.49 C1121.60,722.81 1122.05,718.51 1124.51,710.25 C1125.87,705.71 1126.42,705.00 1128.61,705.00 C1130.54,705.00 1131.02,705.41 1130.63,706.75 C1127.81,716.65 1126.83,721.16 1127.39,721.72 C1128.46,722.79 1132.61,718.00 1136.23,711.50 C1138.52,707.39 1140.27,705.40 1141.79,705.18 C1144.41,704.80 1144.51,705.76 1142.49,712.41 C1140.65,718.48 1140.59,722.00 1142.33,722.00 C1144.62,722.00 1148.00,717.50 1148.00,714.44 C1148.01,710.90 1151.57,704.69 1153.28,705.25 C1155.31,705.92 1155.24,709.66 1153.13,714.44 C1149.73,722.12 1153.39,721.56 1159.23,713.50 C1162.88,708.47 1169.43,704.00 1173.15,704.00 C1174.72,704.00 1176.95,704.95 1178.11,706.11 C1179.89,707.89 1180.16,709.10 1179.78,713.61 C1179.54,716.58 1179.51,719.00 1179.72,719.00 C1180.47,719.00 1185.08,713.41 1188.18,708.75 C1191.29,704.07 1194.00,702.56 1194.00,705.50 C1194.00,707.30 1195.06,707.38 1198.46,705.84 C1199.86,705.20 1201.29,704.96 1201.64,705.30 C1201.98,705.65 1200.77,709.32 1198.95,713.45 C1197.14,717.59 1195.95,721.28 1196.32,721.65 C1198.19,723.52 1209.03,709.45 1211.42,702.04 C1215.14,690.49 1221.04,681.87 1223.05,685.04 C1225.47,688.88 1223.02,699.26 1217.54,708.37 C1215.10,712.41 1214.00,715.45 1214.00,718.12 C1214.00,724.05 1216.96,723.34 1222.62,716.05 C1228.07,709.04 1233.46,705.03 1237.87,704.72 C1238.86,704.65 1239.55,704.64 1240.09,704.36 C1241.43,703.67 1241.94,701.38 1244.07,692.75 C1244.71,690.14 1245.60,688.00 1246.04,688.00 C1246.48,688.00 1247.55,687.73 1248.42,687.39 C1250.85,686.46 1250.45,689.54 1245.94,706.21 C1242.35,719.50 1241.63,724.60 1243.80,721.43 C1244.19,720.87 1246.47,717.84 1248.87,714.70 C1253.09,709.20 1255.00,707.77 1255.00,710.12 C1255.00,711.86 1246.15,723.85 1244.02,724.99 C1241.17,726.51 1238.22,726.21 1237.13,724.27 C1236.21,722.63 1236.06,722.63 1234.25,724.27 C1233.20,725.22 1231.44,726.00 1230.33,726.00 C1228.18,726.00 1225.00,723.12 1225.00,721.17 C1225.00,719.37 1224.06,719.74 1220.35,723.00 C1214.51,728.13 1209.11,726.40 1208.09,719.08 L 1207.50 714.86 L 1203.63 719.94 C1199.66,725.17 1195.92,727.06 1193.10,725.30 C1190.88,723.91 1190.58,719.71 1192.44,716.12 C1194.46,712.20 1194.43,712.00 1191.71,712.00 C1190.12,712.00 1188.22,713.57 1185.57,717.04 C1181.59,722.25 1178.63,724.51 1177.04,723.52 C1176.53,723.21 1174.63,723.86 1172.81,724.97 ZM 388.07 344.39 C376.03,347.96 367.00,344.48 367.00,336.27 C367.00,322.35 393.31,304.87 410.40,307.43 C419.09,308.74 421.27,315.50 415.98,324.74 C411.22,333.04 400.21,340.79 388.07,344.39 ZM 843.78 141.47 C838.19,143.71 827.68,144.26 821.50,142.65 C799.20,136.85 795.87,120.28 815.82,114.44 C831.96,109.71 854.00,118.75 854.00,130.11 C854.00,133.88 849.07,139.35 843.78,141.47 ZM 1095.78 725.45 C1093.74,726.30 1091.71,726.98 1091.28,726.96 C1089.92,726.89 1085.00,723.97 1084.98,723.22 C1084.98,722.82 1084.56,721.86 1084.07,721.07 C1083.33,719.92 1082.49,720.24 1079.55,722.82 C1071.92,729.52 1067.60,724.84 1071.64,714.26 C1075.02,705.43 1070.75,708.15 1064.21,719.00 C1061.50,723.49 1059.58,725.60 1058.00,725.84 C1055.58,726.20 1055.56,725.81 1057.61,718.00 C1058.14,715.98 1057.31,716.51 1053.32,720.75 C1048.05,726.35 1044.58,727.44 1041.57,724.43 C1040.96,723.82 1040.54,723.43 1040.32,722.95 C1039.87,721.96 1040.30,720.57 1041.68,716.01 L 1041.90 715.31 C1043.46,710.17 1043.54,709.04 1042.39,708.60 C1040.36,707.82 1040.69,705.89 1042.96,705.30 C1044.07,705.01 1045.40,703.32 1046.04,701.39 C1047.03,698.39 1049.48,696.00 1051.56,696.00 C1051.94,696.00 1051.96,697.85 1051.60,700.11 C1051.20,702.63 1051.37,704.74 1052.06,705.57 C1053.32,707.09 1052.52,709.00 1050.60,709.00 C1049.90,709.00 1048.59,711.66 1047.66,714.98 L 1047.47 715.67 C1046.24,720.12 1045.87,721.44 1046.32,721.84 C1046.51,722.00 1046.85,722.00 1047.33,722.00 C1047.39,722.00 1047.44,722.00 1047.51,722.00 C1048.33,722.00 1051.10,719.10 1053.65,715.55 C1056.20,712.01 1058.90,708.87 1059.64,708.58 C1060.39,708.30 1061.00,707.42 1061.00,706.64 C1061.00,703.99 1066.62,691.36 1069.44,687.66 C1072.60,683.53 1074.55,683.02 1075.53,686.09 C1077.01,690.76 1073.58,700.00 1067.99,706.35 C1066.35,708.23 1065.00,710.30 1065.00,710.96 C1065.00,711.62 1066.17,710.76 1067.61,709.05 C1070.88,705.16 1073.54,703.72 1075.99,704.50 C1078.98,705.45 1079.24,708.29 1076.93,714.96 C1075.76,718.36 1075.12,721.44 1075.50,721.82 C1075.89,722.19 1077.84,720.47 1079.84,718.00 C1089.62,705.89 1094.59,702.58 1099.57,704.85 C1103.25,706.53 1102.78,710.53 1098.43,714.63 C1096.47,716.48 1093.74,718.28 1092.38,718.62 C1089.07,719.45 1089.65,722.40 1093.21,722.81 C1095.24,723.05 1097.05,722.07 1100.50,718.90 C1103.02,716.57 1105.84,713.39 1106.76,711.83 C1108.32,709.19 1111.00,707.94 1111.00,709.85 C1111.00,711.11 1105.69,718.10 1102.38,721.20 C1100.80,722.68 1097.83,724.59 1095.78,725.45 ZM 831.85 101.07 C827.35,103.37 815.67,104.50 810.50,103.13 C805.77,101.88 801.16,99.16 799.96,96.92 C796.24,89.98 814.06,84.47 828.47,88.10 C837.82,90.45 839.56,97.14 831.85,101.07 ZM 851.85 723.82 C840.84,729.12 829.52,726.13 830.20,718.10 C830.59,713.58 834.42,711.24 842.84,710.36 C848.15,709.80 849.00,709.94 849.00,711.36 C849.00,712.50 848.13,713.00 846.15,713.00 C836.47,713.00 831.62,719.94 839.12,723.05 C845.27,725.60 854.33,720.21 854.33,714.02 C854.33,711.75 852.98,709.61 848.72,705.14 C842.72,698.86 841.16,695.28 842.62,691.14 C845.50,682.96 863.76,680.21 865.64,687.68 C866.78,692.23 858.77,697.38 853.63,695.41 C851.02,694.41 851.72,693.42 855.75,692.43 C858.50,691.75 859.58,690.91 859.81,689.29 C860.47,684.65 851.68,685.51 848.48,690.39 C846.42,693.54 847.34,695.45 854.64,703.18 C858.91,707.70 860.00,709.53 860.00,712.18 C859.99,716.94 856.87,721.40 851.85,723.82 ZM 813.91 80.93 C811.16,81.52 808.59,81.95 808.20,81.89 C798.29,80.26 793.50,77.53 793.50,73.50 C793.50,69.55 798.20,66.91 806.40,66.26 C824.76,64.78 831.13,77.23 813.91,80.93 ZM 1166.57 722.43 C1168.68,724.54 1171.78,722.87 1172.55,719.22 C1172.87,717.72 1173.70,714.92 1174.39,712.98 C1175.89,708.82 1175.49,707.00 1173.07,707.00 C1170.82,707.00 1168.49,709.59 1166.54,714.25 C1164.60,718.90 1164.60,720.46 1166.57,722.43 ZM 1230.41 721.62 C1230.98,723.12 1231.23,723.10 1233.13,721.39 C1234.28,720.35 1236.29,717.38 1237.61,714.78 C1241.64,706.84 1240.42,704.48 1235.31,710.30 C1231.74,714.36 1229.56,719.41 1230.41,721.62 ZM 1004.00 719.95 C1004.00,721.08 1004.41,722.00 1004.91,722.00 C1007.58,722.00 1016.09,707.91 1013.88,707.14 C1011.32,706.25 1004.00,715.75 1004.00,719.95 ZM 1090.00 714.75 C1090.00,716.72 1091.87,716.22 1094.55,713.55 C1097.29,710.80 1097.83,707.00 1095.49,707.00 C1093.92,707.00 1090.01,712.53 1090.00,714.75 ZM 870.00 715.15 C870.00,716.74 872.08,716.01 874.55,713.55 C877.11,710.98 877.96,706.52 875.75,707.24 C874.41,707.69 870.00,713.74 870.00,715.15 ZM 968.67 699.42 C967.61,702.18 963.00,700.93 963.00,697.89 C963.00,695.28 965.77,694.34 967.71,696.29 C968.57,697.14 969.00,698.55 968.67,699.42 Z" fill="rgb(40,36,37)"/>
<path d="M 663.23 198.07 C658.11,199.38 652.59,199.97 646.09,199.90 C635.46,199.78 632.62,199.28 625.95,196.31 C601.11,185.27 606.10,157.39 635.50,142.94 C646.40,137.59 654.24,135.79 666.94,135.76 C687.48,135.69 699.48,142.42 703.09,156.01 C705.39,164.68 699.65,177.12 689.67,185.08 C682.68,190.66 672.35,195.74 663.23,198.07 ZM 603.04 269.16 C596.97,271.25 582.49,272.34 577.00,271.13 C568.01,269.15 558.52,262.80 555.28,256.60 C554.30,254.74 553.66,251.10 553.66,247.50 C553.67,228.95 576.91,212.00 602.33,212.00 C616.07,212.00 626.34,216.32 631.75,224.38 C634.51,228.50 635.00,230.12 635.00,235.18 C635.00,249.49 622.95,262.31 603.04,269.16 ZM 538.50 454.48 C529.97,458.67 518.51,459.22 512.00,455.75 C509.52,454.43 506.15,451.43 504.50,449.09 C501.67,445.07 501.50,444.29 501.50,435.16 C501.50,426.12 501.72,425.05 505.00,418.51 C512.50,403.53 527.06,392.99 541.37,392.16 C545.41,391.92 549.86,392.29 552.16,393.05 C557.41,394.79 562.46,400.61 564.60,407.41 C566.11,412.19 566.19,413.85 565.19,419.24 C562.57,433.36 551.35,448.17 538.50,454.48 ZM 518.00 559.78 C503.70,566.65 492.05,563.93 486.41,552.41 C483.95,547.37 483.77,546.20 484.26,538.36 C484.71,531.15 485.37,528.64 488.47,522.36 C493.68,511.82 502.22,502.99 511.76,498.27 C518.32,495.03 520.20,494.56 526.41,494.56 C537.77,494.56 543.61,499.40 546.07,510.89 C549.59,527.31 535.89,551.19 518.00,559.78 ZM 112.51 658.41 L 102.52 670.00 L 92.76 670.00 C87.39,670.00 83.00,669.75 83.00,669.45 C83.00,669.14 90.31,661.01 99.25,651.37 C108.19,641.73 115.66,633.39 115.87,632.83 C116.07,632.27 108.64,624.09 99.37,614.65 L 82.50 597.50 L 104.50 596.90 L 116.06 609.13 L 127.62 621.37 L 138.54 609.18 L 149.46 597.00 L 169.45 597.00 L 162.48 604.25 C158.65,608.24 151.46,615.66 146.52,620.76 L 137.53 630.01 L 156.76 649.26 C167.34,659.85 176.00,668.85 176.00,669.26 C176.00,669.67 171.09,670.00 165.09,670.00 L 154.18 670.00 L 140.50 655.75 L 126.82 641.50 L 124.66 644.16 C123.47,645.62 118.00,652.03 112.51,658.41 ZM 768.63 153.64 C763.17,156.14 761.19,156.47 750.50,156.72 C740.64,156.94 737.43,156.63 732.50,154.98 C720.65,151.02 714.00,144.25 714.00,136.16 C714.00,131.98 714.43,131.20 719.25,126.56 C727.09,119.01 732.15,117.49 749.50,117.52 C761.87,117.54 764.07,117.81 768.44,119.80 C779.49,124.84 783.54,130.06 782.75,138.23 C782.15,144.45 777.42,149.62 768.63,153.64 ZM 212.39 668.42 C211.91,669.67 210.18,670.00 204.06,670.00 C199.81,670.00 196.03,669.70 195.67,669.33 C195.30,668.97 195.00,652.54 195.00,632.83 L 195.00 597.00 L 213.00 597.00 L 213.00 631.92 C213.00,651.12 212.73,667.55 212.39,668.42 ZM 1247.80 668.60 C1245.88,669.59 1241.31,670.00 1232.05,670.00 L 1219.00 670.00 L 1219.00 639.86 L 1233.98 640.18 L 1248.97 640.50 L 1252.23 643.77 C1255.33,646.87 1255.50,647.42 1255.50,654.44 C1255.50,660.95 1255.20,662.16 1253.00,664.51 C1251.62,665.99 1249.28,667.82 1247.80,668.60 ZM 463.80 664.25 C463.51,669.37 463.42,669.51 460.25,669.81 L 457.00 670.13 L 457.00 640.00 L 472.30 640.00 C482.87,640.00 487.97,640.37 488.80,641.20 C489.50,641.90 490.00,645.23 490.00,649.14 C490.00,654.98 489.70,656.10 487.78,657.44 C486.56,658.30 484.42,659.01 483.03,659.03 C480.71,659.06 480.94,659.45 485.82,663.79 C488.75,666.39 490.82,668.85 490.41,669.26 C490.00,669.67 488.04,670.00 486.05,670.00 C482.99,670.00 481.59,669.15 477.00,664.50 C472.34,659.79 471.03,659.00 467.84,659.00 L 464.10 659.00 ZM 898.86 137.07 C894.48,139.31 884.17,140.38 879.50,139.09 C866.50,135.48 862.11,127.63 869.47,121.16 C873.68,117.47 878.50,116.01 886.57,116.01 C897.61,116.00 907.00,121.25 907.00,127.44 C907.00,130.61 903.56,134.67 898.86,137.07 ZM 1008.00 659.31 L 1008.00 670.00 L 1001.00 670.00 L 1001.00 640.00 L 1016.89 640.00 C1017.90,640.00 1018.84,640.00 1019.73,640.00 C1028.28,639.98 1031.73,639.97 1033.11,641.66 C1034.04,642.80 1034.03,644.70 1034.01,647.89 C1034.00,648.38 1034.00,648.91 1034.00,649.46 C1034.00,653.61 1033.53,656.15 1032.61,656.91 C1031.85,657.54 1026.00,658.34 1019.61,658.68 ZM 661.44 667.78 C659.96,669.90 659.23,670.00 645.50,670.00 C631.77,670.00 631.04,669.90 629.56,667.78 C627.29,664.55 627.63,662.31 630.48,661.59 C632.24,661.15 633.56,661.56 634.98,662.98 C636.67,664.67 638.31,665.00 644.92,665.00 C654.78,665.00 656.00,664.55 656.00,660.89 L 656.00 658.00 L 647.25 657.99 C637.08,657.99 631.44,656.69 630.01,654.02 C628.60,651.38 628.75,643.73 630.26,641.66 C631.37,640.15 633.28,639.98 646.51,640.22 L 661.50 640.50 L 661.80 643.62 C662.05,646.16 661.68,646.85 659.80,647.36 C656.44,648.26 656.00,648.16 656.00,646.50 C656.00,645.27 654.22,645.00 645.94,645.00 L 635.87 645.00 L 636.50 651.50 L 648.50 651.77 C658.33,651.99 660.73,652.34 661.75,653.71 C663.52,656.08 663.33,665.09 661.44,667.78 ZM 937.43 668.43 C936.15,669.70 933.27,670.00 922.12,670.00 C907.33,670.00 905.59,669.49 904.48,664.89 C903.96,662.73 904.26,662.16 906.18,661.65 C909.81,660.68 911.00,660.88 911.00,662.48 C911.00,664.55 914.21,665.14 923.50,664.80 L 931.50 664.50 L 932.13 658.00 L 922.81 657.94 C917.69,657.91 911.92,657.35 910.00,656.69 C906.54,655.52 906.50,655.42 906.20,649.16 C906.02,645.35 906.37,642.26 907.07,641.41 C907.98,640.32 911.46,640.00 922.65,640.00 L 937.05 640.00 L 938.06 642.66 C939.17,645.57 938.67,646.42 935.25,647.46 C933.66,647.93 932.81,647.67 932.39,646.57 C931.90,645.29 929.95,645.00 921.83,645.00 L 911.87 645.00 L 912.50 651.50 L 924.44 651.78 C931.14,651.94 936.95,652.54 937.69,653.16 C939.64,654.77 939.44,666.42 937.43,668.43 ZM 750.44 667.78 C748.96,669.90 748.23,670.00 734.50,670.00 C720.77,670.00 720.04,669.90 718.56,667.78 C716.36,664.64 716.62,662.33 719.25,661.63 C722.53,660.75 723.00,660.85 723.00,662.38 C723.00,664.26 726.17,664.97 734.67,664.99 C743.74,665.00 745.00,664.50 745.00,660.89 L 745.00 658.00 L 735.75 657.94 C723.29,657.87 719.83,656.61 718.68,651.75 C718.17,649.58 718.17,646.42 718.69,644.25 L 719.57 640.50 L 734.46 640.22 C750.19,639.93 750.95,640.13 750.98,644.63 C750.99,646.01 750.20,646.98 748.75,647.37 C745.44,648.26 745.00,648.15 745.00,646.50 C745.00,645.27 743.22,645.00 734.94,645.00 L 724.87 645.00 L 725.50 651.50 L 737.50 651.77 C747.33,651.99 749.73,652.34 750.75,653.71 C752.52,656.08 752.33,665.09 750.44,667.78 ZM 856.00 660.42 L 856.00 670.00 L 850.00 670.00 L 850.00 640.00 L 853.25 640.01 C856.14,640.02 857.21,640.94 863.00,648.48 C866.58,653.13 869.90,656.82 870.40,656.67 C870.89,656.52 874.06,652.82 877.44,648.45 C882.57,641.81 884.11,640.45 886.79,640.19 L 890.00 639.87 L 890.00 670.00 L 884.00 670.00 L 884.00 660.50 C884.00,654.99 883.59,651.00 883.02,651.00 C882.49,651.00 879.50,654.39 876.38,658.53 C873.26,662.68 870.21,665.91 869.60,665.71 C869.00,665.51 866.09,662.23 863.15,658.42 C860.21,654.62 857.40,651.35 856.90,651.17 C856.41,650.98 856.00,655.13 856.00,660.42 ZM 295.43 668.43 C294.15,669.71 291.23,670.00 279.63,670.00 C269.90,670.00 265.02,669.62 264.20,668.80 C262.46,667.06 262.71,662.32 264.58,661.61 C267.20,660.60 269.00,660.92 269.00,662.38 C269.00,664.17 272.11,664.97 279.12,664.99 C288.56,665.01 291.00,664.19 291.00,661.00 L 291.00 658.25 L 279.54 657.81 C265.30,657.27 264.00,656.45 264.00,648.04 C264.00,644.94 264.54,641.86 265.20,641.20 C266.02,640.38 270.92,640.00 280.72,640.00 L 295.04 640.00 L 296.19 642.53 C297.46,645.30 296.82,646.38 293.25,647.46 C291.58,647.96 291.00,647.73 291.00,646.57 C291.00,645.24 289.36,645.00 280.44,645.00 L 269.87 645.00 L 270.50 651.50 L 282.44 651.78 C289.14,651.94 294.95,652.54 295.69,653.16 C297.64,654.77 297.44,666.42 295.43,668.43 ZM 439.13 668.35 C437.97,669.74 435.53,670.00 423.57,670.00 C412.91,670.00 408.90,669.65 407.44,668.58 C405.72,667.32 405.46,665.66 405.17,653.58 L 404.85 640.00 L 413.00 640.00 L 413.00 663.75 L 416.12 664.38 C420.12,665.17 429.36,665.18 431.42,664.39 C432.74,663.89 433.00,661.82 433.00,651.89 L 433.00 640.00 L 441.15 640.00 L 440.83 653.35 C440.60,662.79 440.10,667.18 439.13,668.35 ZM 836.00 667.50 L 836.00 670.00 L 804.00 670.00 L 804.00 640.00 L 836.14 640.00 L 835.82 642.25 C835.51,644.42 835.08,644.51 823.75,644.78 L 812.00 645.06 L 812.00 652.00 L 819.07 652.00 C825.83,652.00 826.13,652.10 825.82,654.25 C825.53,656.28 824.87,656.53 819.03,656.80 C812.10,657.13 811.05,657.80 811.75,661.47 C812.33,664.49 814.32,664.97 826.25,664.99 C835.98,665.00 836.00,665.01 836.00,667.50 ZM 388.97 668.54 C388.01,669.69 384.89,669.99 374.13,669.97 C366.63,669.95 359.71,669.48 358.75,668.92 C357.23,668.03 357.00,666.23 357.00,655.07 C357.00,645.36 357.34,641.97 358.39,641.10 C359.33,640.31 364.52,640.03 374.62,640.22 L 389.47 640.50 L 390.14 644.50 C390.92,649.14 390.55,649.71 386.50,650.16 C383.87,650.46 383.46,650.16 383.18,647.75 L 382.87 645.00 L 364.00 645.00 L 364.00 654.66 C364.00,660.00 364.00,662.58 365.29,663.82 C366.48,664.97 368.79,664.97 373.25,664.97 L 373.50 664.97 C381.36,664.97 383.00,664.24 383.00,660.76 C383.00,657.92 383.18,657.79 386.12,658.38 C387.84,658.72 389.70,659.00 390.26,659.00 C391.59,659.00 390.55,666.63 388.97,668.54 ZM 344.00 667.50 L 344.00 670.00 L 312.00 670.00 L 312.00 640.00 L 344.14 640.00 L 343.82 642.25 C343.51,644.43 343.10,644.51 331.19,644.78 L 318.88 645.06 L 319.19 648.28 L 319.50 651.50 L 326.50 652.00 C332.67,652.44 333.50,652.74 333.50,654.50 C333.50,656.29 332.74,656.53 326.25,656.79 L 319.00 657.09 L 319.00 660.42 C319.00,663.35 319.38,663.83 322.12,664.38 C323.84,664.72 329.47,665.00 334.62,665.00 C343.96,665.00 344.00,665.01 344.00,667.50 ZM 943.32 136.88 C937.05,140.10 924.57,136.40 922.57,130.73 C918.86,120.18 937.15,113.36 946.97,121.63 C952.41,126.21 950.78,133.03 943.32,136.88 ZM 1068.91 655.48 C1062.17,667.59 1060.44,670.00 1058.53,670.00 C1057.27,670.00 1055.80,669.44 1055.27,668.75 C1053.81,666.89 1039.00,641.24 1039.00,640.57 C1039.00,640.26 1040.75,640.00 1042.89,640.00 C1046.77,640.00 1046.78,640.02 1052.14,649.69 C1055.09,655.02 1057.95,659.52 1058.50,659.68 C1059.05,659.84 1061.75,655.67 1064.50,650.41 C1067.25,645.15 1070.21,640.46 1071.09,639.98 C1072.50,639.20 1077.00,639.67 1077.00,640.59 C1077.00,640.79 1073.36,647.49 1068.91,655.48 ZM 1226.74 664.41 C1227.15,664.82 1228.78,664.89 1230.37,664.58 C1231.95,664.26 1235.48,664.00 1238.20,664.00 C1242.34,664.00 1243.63,663.52 1246.08,661.08 C1249.23,657.92 1249.86,653.97 1247.89,649.66 C1246.28,646.12 1242.92,645.00 1233.95,645.00 L 1226.00 645.00 L 1226.00 654.33 C1226.00,659.47 1226.33,664.00 1226.74,664.41 ZM 1195.50 645.50 L 1194.94 670.00 L 1192.14 670.00 C1190.59,670.00 1189.03,669.70 1188.67,669.33 C1188.30,668.97 1188.00,663.34 1188.00,656.83 L 1188.00 645.00 L 1181.00 645.00 C1174.20,645.00 1174.00,644.93 1174.00,642.50 L 1174.00 640.00 L 1210.00 640.00 L 1210.00 642.46 C1210.00,644.81 1209.70,644.92 1202.75,645.21 ZM 542.00 645.00 L 542.00 670.00 L 535.00 670.00 L 535.00 645.00 L 528.00 645.00 C521.20,645.00 521.00,644.93 521.00,642.50 L 521.00 640.00 L 557.00 640.00 L 557.00 642.50 C557.00,644.94 556.83,645.00 549.50,645.00 ZM 581.09 656.50 L 581.00 670.00 L 574.00 670.00 L 574.00 656.33 L 566.41 648.17 L 558.83 640.00 L 563.72 640.00 C568.41,640.00 568.82,640.23 573.36,645.49 L 578.10 650.98 L 583.30 645.41 C588.05,640.32 588.82,639.87 592.22,640.17 L 595.95 640.50 L 588.52 648.50 ZM 1101.00 645.00 L 1101.00 670.00 L 1094.00 670.00 L 1094.00 645.09 L 1086.75 644.79 C1080.10,644.52 1079.47,644.31 1079.18,642.25 L 1078.86 640.00 L 1115.00 640.00 L 1115.00 642.50 C1115.00,644.93 1114.80,645.00 1108.00,645.00 ZM 781.00 645.00 L 781.00 670.00 L 774.00 670.00 L 774.00 645.00 L 767.00 645.00 C760.20,645.00 760.00,644.93 760.00,642.50 L 760.00 640.00 L 795.00 640.00 L 795.00 642.50 C795.00,644.93 794.80,645.00 788.00,645.00 ZM 693.00 656.45 L 693.00 670.00 L 686.00 670.00 L 686.00 655.65 L 678.75 648.08 L 671.50 640.50 L 676.00 640.17 C680.36,639.86 680.66,640.03 685.55,645.52 L 690.59 651.19 L 695.37 645.60 C699.67,640.56 700.55,640.00 704.08,640.00 C706.23,640.00 708.00,640.35 708.00,640.78 C708.00,641.20 704.62,644.90 700.50,649.00 ZM 1178.00 665.00 L 1178.00 670.00 L 1147.00 670.00 L 1147.00 640.00 L 1154.00 640.00 L 1154.00 651.31 C1154.00,658.24 1154.00,661.66 1155.71,663.35 C1157.38,665.00 1160.68,665.00 1167.20,665.00 ZM 512.00 640.00 L 512.00 670.00 L 505.00 670.00 L 505.00 640.00 ZM 464.00 645.00 L 464.00 653.08 L 482.50 652.50 L 483.12 645.00 ZM 1008.70 652.37 C1009.09,652.76 1013.25,652.94 1017.95,652.79 L 1026.50 652.50 L 1026.81 648.75 L 1027.12 645.00 L 1008.00 645.00 L 1008.00 648.33 C1008.00,650.17 1008.32,651.98 1008.70,652.37 Z" fill="rgb(227,32,41)"/>
<path d="M 0.00 396.50 L 0.00 0.00 L 661.50 0.00 L 1323.00 0.00 L 1323.00 396.50 L 1323.00 793.00 L 661.50 793.00 L 0.00 793.00 L 0.00 396.50 ZM 1010.13 736.79 C1011.20,735.31 1012.59,732.61 1013.22,730.79 C1013.85,728.98 1015.44,726.66 1016.75,725.62 C1020.47,722.70 1029.00,712.07 1029.00,710.36 C1029.00,707.96 1027.62,709.03 1021.99,715.79 C1019.11,719.26 1016.56,721.89 1016.32,721.65 C1016.08,721.41 1016.89,717.76 1018.12,713.53 C1020.72,704.57 1020.23,703.64 1013.23,704.34 C1007.67,704.89 1002.37,708.63 996.39,716.24 C991.19,722.87 989.94,722.57 992.41,715.31 C994.31,709.74 994.42,706.82 992.80,705.20 C990.87,703.27 989.26,703.77 985.01,707.61 L 981.00 711.23 L 981.63 708.11 C982.19,705.32 982.00,705.00 979.88,705.02 C978.14,705.04 976.22,706.75 972.76,711.34 C967.24,718.67 963.28,722.61 962.35,721.69 C962.00,721.33 962.83,717.54 964.21,713.27 C965.60,709.00 966.44,705.18 966.10,704.78 C965.26,703.84 961.00,704.98 961.00,706.14 C961.00,706.64 959.70,708.50 958.10,710.28 C956.51,712.05 953.39,715.52 951.18,717.99 C948.97,720.47 946.86,722.19 946.50,721.83 C946.14,721.47 947.44,717.48 949.39,712.98 C952.81,705.09 952.86,704.81 950.72,705.40 C944.15,707.22 944.00,707.23 944.00,705.61 C944.00,702.16 941.11,704.33 935.76,711.81 C930.21,719.56 927.34,722.68 926.52,721.86 C926.29,721.62 927.20,718.39 928.55,714.67 C930.79,708.50 931.64,704.00 930.58,704.00 C928.55,704.00 926.30,706.22 922.62,711.87 C918.50,718.20 914.39,722.79 913.64,721.91 C913.44,721.68 914.51,717.78 916.01,713.23 C917.51,708.68 918.42,704.76 918.04,704.52 C916.19,703.38 913.17,705.68 910.00,710.64 C904.33,719.53 897.79,724.28 893.50,722.64 C889.96,721.28 893.21,709.01 897.55,707.34 C899.70,706.52 900.52,707.66 899.06,709.43 C896.49,712.53 900.04,714.18 903.17,711.35 C905.41,709.32 905.49,707.63 903.43,705.57 C899.69,701.83 890.77,705.83 885.49,713.62 C881.84,719.02 875.99,723.28 872.84,722.83 C869.56,722.36 869.27,719.40 872.43,718.61 C873.82,718.26 876.55,716.58 878.48,714.88 C886.35,707.98 880.29,700.47 871.29,705.96 C867.71,708.15 864.00,714.54 864.00,718.54 C864.00,721.42 868.87,727.00 871.38,727.00 C873.59,727.00 878.00,724.93 881.83,722.10 L 885.16 719.64 L 887.57 722.71 C891.78,728.09 897.46,727.71 904.75,721.56 L 908.00 718.82 L 908.00 721.21 C908.00,726.66 912.30,727.43 917.47,722.90 C920.52,720.21 921.00,720.05 921.00,721.70 C921.00,724.22 922.89,726.00 925.56,726.00 C927.74,726.00 935.61,718.47 937.90,714.19 C938.62,712.85 940.02,712.00 941.54,712.00 C944.44,712.00 944.48,712.18 942.44,716.12 C940.58,719.71 940.88,723.91 943.10,725.30 C945.86,727.03 949.82,725.16 953.23,720.53 C957.05,715.33 958.19,714.85 957.03,718.91 C956.02,722.41 958.08,726.00 961.10,726.00 C962.19,726.00 965.32,723.91 968.04,721.36 C973.08,716.66 973.82,716.70 971.96,721.60 C971.39,723.10 971.29,724.69 971.73,725.13 C973.27,726.67 976.85,724.79 978.09,721.77 C979.60,718.13 986.66,709.00 987.97,709.00 C988.48,709.00 988.02,711.55 986.95,714.66 C984.51,721.75 984.50,723.66 986.93,724.96 C989.80,726.50 990.60,726.29 994.35,723.00 C998.20,719.62 999.00,719.36 999.00,721.48 C999.00,722.29 1000.06,723.65 1001.37,724.50 C1003.21,725.71 1004.34,725.82 1006.50,725.00 C1010.88,723.34 1010.66,724.59 1005.65,729.94 C1002.02,733.83 1001.00,735.65 1001.00,738.29 C1001.00,740.15 1001.29,741.95 1001.64,742.31 C1002.62,743.29 1007.96,739.83 1010.13,736.79 ZM 851.85 723.82 C856.87,721.40 859.99,716.94 860.00,712.18 C860.00,709.53 858.91,707.70 854.64,703.18 C847.34,695.45 846.42,693.54 848.48,690.39 C851.68,685.51 860.47,684.65 859.81,689.29 C859.58,690.91 858.50,691.75 855.75,692.43 C851.72,693.42 851.02,694.41 853.63,695.41 C858.77,697.38 866.78,692.23 865.64,687.68 C863.76,680.21 845.50,682.96 842.62,691.14 C841.16,695.28 842.72,698.86 848.72,705.14 C852.98,709.61 854.33,711.75 854.33,714.02 C854.33,720.21 845.27,725.60 839.12,723.05 C831.62,719.94 836.47,713.00 846.15,713.00 C848.13,713.00 849.00,712.50 849.00,711.36 C849.00,709.94 848.15,709.80 842.84,710.36 C834.42,711.24 830.59,713.58 830.20,718.10 C829.52,726.13 840.84,729.12 851.85,723.82 ZM 1095.78 725.45 C1097.83,724.59 1100.80,722.68 1102.38,721.20 C1105.69,718.10 1111.00,711.11 1111.00,709.85 C1111.00,707.94 1108.32,709.19 1106.76,711.83 C1105.84,713.39 1103.02,716.57 1100.50,718.90 C1097.05,722.07 1095.24,723.05 1093.21,722.81 C1089.65,722.40 1089.07,719.45 1092.38,718.62 C1093.74,718.28 1096.47,716.48 1098.43,714.63 C1102.78,710.53 1103.25,706.53 1099.57,704.85 C1094.59,702.58 1089.62,705.89 1079.84,718.00 C1077.84,720.47 1075.89,722.19 1075.50,721.82 C1075.12,721.44 1075.76,718.36 1076.93,714.96 C1079.24,708.29 1078.98,705.45 1075.99,704.50 C1073.54,703.72 1070.88,705.16 1067.61,709.05 C1066.17,710.76 1065.00,711.62 1065.00,710.96 C1065.00,710.30 1066.35,708.23 1067.99,706.35 C1073.58,700.00 1077.01,690.76 1075.53,686.09 C1074.55,683.02 1072.60,683.53 1069.44,687.66 C1066.62,691.36 1061.00,703.99 1061.00,706.64 C1061.00,707.42 1060.39,708.30 1059.64,708.58 C1058.90,708.87 1056.20,712.01 1053.65,715.55 C1051.10,719.10 1048.33,722.00 1047.51,722.00 C1045.65,722.00 1045.65,722.24 1047.66,714.98 C1048.59,711.66 1049.90,709.00 1050.60,709.00 C1052.52,709.00 1053.32,707.09 1052.06,705.57 C1051.37,704.74 1051.20,702.63 1051.60,700.11 C1051.96,697.85 1051.94,696.00 1051.56,696.00 C1049.48,696.00 1047.03,698.39 1046.04,701.39 C1045.40,703.32 1044.07,705.01 1042.96,705.30 C1040.69,705.89 1040.36,707.82 1042.39,708.60 C1043.54,709.04 1043.46,710.17 1041.90,715.31 C1039.62,722.80 1039.63,722.49 1041.57,724.43 C1044.58,727.44 1048.05,726.35 1053.32,720.75 C1057.31,716.51 1058.14,715.98 1057.61,718.00 C1055.56,725.81 1055.58,726.20 1058.00,725.84 C1059.58,725.60 1061.50,723.49 1064.21,719.00 C1070.75,708.15 1075.02,705.43 1071.64,714.26 C1067.60,724.84 1071.92,729.52 1079.55,722.82 C1082.49,720.24 1083.33,719.92 1084.07,721.07 C1084.56,721.86 1084.98,722.82 1084.98,723.22 C1085.00,723.97 1089.92,726.89 1091.28,726.96 C1091.71,726.98 1093.74,726.30 1095.78,725.45 ZM 1172.81 724.97 C1174.63,723.86 1176.53,723.21 1177.04,723.52 C1178.63,724.51 1181.59,722.25 1185.57,717.04 C1188.22,713.57 1190.12,712.00 1191.71,712.00 C1194.43,712.00 1194.46,712.20 1192.44,716.12 C1190.58,719.71 1190.88,723.91 1193.10,725.30 C1195.92,727.06 1199.66,725.17 1203.63,719.94 L 1207.50 714.86 L 1208.09 719.08 C1209.11,726.40 1214.51,728.13 1220.35,723.00 C1224.06,719.74 1225.00,719.37 1225.00,721.17 C1225.00,723.12 1228.18,726.00 1230.33,726.00 C1231.44,726.00 1233.20,725.22 1234.25,724.27 C1236.06,722.63 1236.21,722.63 1237.13,724.27 C1238.22,726.21 1241.17,726.51 1244.02,724.99 C1246.15,723.85 1255.00,711.86 1255.00,710.12 C1255.00,707.77 1253.09,709.20 1248.87,714.70 C1246.47,717.84 1244.19,720.87 1243.80,721.43 C1241.63,724.60 1242.35,719.50 1245.94,706.21 C1250.45,689.54 1250.85,686.46 1248.42,687.39 C1247.55,687.73 1246.48,688.00 1246.04,688.00 C1245.60,688.00 1244.71,690.14 1244.07,692.75 C1241.07,704.91 1241.28,704.48 1237.87,704.72 C1233.46,705.03 1228.07,709.04 1222.62,716.05 C1216.96,723.34 1214.00,724.05 1214.00,718.12 C1214.00,715.45 1215.10,712.41 1217.54,708.37 C1223.02,699.26 1225.47,688.88 1223.05,685.04 C1221.04,681.87 1215.14,690.49 1211.42,702.04 C1209.03,709.45 1198.19,723.52 1196.32,721.65 C1195.95,721.28 1197.14,717.59 1198.95,713.45 C1200.77,709.32 1201.98,705.65 1201.64,705.30 C1201.29,704.96 1199.86,705.20 1198.46,705.84 C1195.06,707.38 1194.00,707.30 1194.00,705.50 C1194.00,702.56 1191.29,704.07 1188.18,708.75 C1185.08,713.41 1180.47,719.00 1179.72,719.00 C1179.51,719.00 1179.54,716.58 1179.78,713.61 C1180.16,709.10 1179.89,707.89 1178.11,706.11 C1176.95,704.95 1174.72,704.00 1173.15,704.00 C1169.43,704.00 1162.88,708.47 1159.23,713.50 C1153.39,721.56 1149.73,722.12 1153.13,714.44 C1155.24,709.66 1155.31,705.92 1153.28,705.25 C1151.57,704.69 1148.01,710.90 1148.00,714.44 C1148.00,717.50 1144.62,722.00 1142.33,722.00 C1140.59,722.00 1140.65,718.48 1142.49,712.41 C1144.51,705.76 1144.41,704.80 1141.79,705.18 C1140.27,705.40 1138.52,707.39 1136.23,711.50 C1132.61,718.00 1128.46,722.79 1127.39,721.72 C1126.83,721.16 1127.81,716.65 1130.63,706.75 C1131.02,705.41 1130.54,705.00 1128.61,705.00 C1126.42,705.00 1125.87,705.71 1124.51,710.25 C1122.05,718.51 1121.60,722.81 1123.00,724.49 C1124.96,726.86 1128.37,726.27 1131.48,723.02 L 1134.34 720.03 L 1136.16 723.02 C1138.45,726.80 1141.76,726.91 1145.98,723.36 C1148.33,721.38 1149.41,721.01 1150.26,721.86 C1151.96,723.56 1154.36,723.24 1156.77,721.00 C1159.49,718.46 1159.65,718.49 1160.40,721.47 C1161.02,723.93 1165.12,726.89 1168.00,726.96 C1168.82,726.98 1170.99,726.08 1172.81,724.97 ZM 968.67 699.42 C969.00,698.55 968.57,697.14 967.71,696.29 C965.77,694.34 963.00,695.28 963.00,697.89 C963.00,700.93 967.61,702.18 968.67,699.42 ZM 112.51 658.41 C118.00,652.03 123.47,645.62 124.66,644.16 L 126.82 641.50 L 140.50 655.75 L 154.18 670.00 L 165.09 670.00 C171.09,670.00 176.00,669.67 176.00,669.26 C176.00,668.85 167.34,659.85 156.76,649.26 L 137.53 630.01 L 146.52 620.76 C151.46,615.66 158.65,608.24 162.48,604.25 L 169.45 597.00 L 159.45 597.00 L 149.46 597.00 L 138.54 609.18 L 127.62 621.37 L 116.06 609.13 L 104.50 596.90 L 93.50 597.20 L 82.50 597.50 L 99.37 614.65 C108.64,624.09 116.07,632.27 115.87,632.83 C115.66,633.39 108.19,641.73 99.25,651.37 C90.31,661.01 83.00,669.14 83.00,669.45 C83.00,669.75 87.39,670.00 92.76,670.00 L 102.52 670.00 L 112.51 658.41 ZM 212.39 668.42 C212.73,667.55 213.00,651.12 213.00,631.92 L 213.00 597.00 L 204.00 597.00 L 195.00 597.00 L 195.00 632.83 C195.00,652.54 195.30,668.97 195.67,669.33 C196.03,669.70 199.81,670.00 204.06,670.00 C210.18,670.00 211.91,669.67 212.39,668.42 ZM 295.43 668.43 C297.44,666.42 297.64,654.77 295.69,653.16 C294.95,652.54 289.14,651.94 282.44,651.78 L 270.50 651.50 L 270.19 648.25 L 269.87 645.00 L 280.44 645.00 C289.36,645.00 291.00,645.24 291.00,646.57 C291.00,647.73 291.58,647.96 293.25,647.46 C296.82,646.38 297.46,645.30 296.19,642.53 L 295.04 640.00 L 280.72 640.00 C270.92,640.00 266.02,640.38 265.20,641.20 C264.54,641.86 264.00,644.94 264.00,648.04 C264.00,656.45 265.30,657.27 279.54,657.81 L 291.00 658.25 L 291.00 661.00 C291.00,664.19 288.56,665.01 279.12,664.99 C272.11,664.97 269.00,664.17 269.00,662.38 C269.00,660.92 267.20,660.60 264.58,661.61 C262.71,662.32 262.46,667.06 264.20,668.80 C265.02,669.62 269.90,670.00 279.63,670.00 C291.23,670.00 294.15,669.71 295.43,668.43 ZM 344.00 667.50 C344.00,665.01 343.96,665.00 334.62,665.00 C329.47,665.00 323.84,664.72 322.12,664.38 C319.38,663.83 319.00,663.35 319.00,660.42 L 319.00 657.09 L 326.25 656.79 C332.74,656.53 333.50,656.29 333.50,654.50 C333.50,652.74 332.67,652.44 326.50,652.00 L 319.50 651.50 L 319.19 648.28 L 318.88 645.06 L 331.19 644.78 C343.10,644.51 343.51,644.43 343.82,642.25 L 344.14 640.00 L 328.07 640.00 L 312.00 640.00 L 312.00 655.00 L 312.00 670.00 L 328.00 670.00 L 344.00 670.00 L 344.00 667.50 ZM 388.97 668.54 C390.55,666.63 391.59,659.00 390.26,659.00 C389.70,659.00 387.84,658.72 386.12,658.38 C383.18,657.79 383.00,657.92 383.00,660.76 C383.00,664.24 381.36,664.97 373.50,664.97 C363.92,664.97 364.00,665.07 364.00,654.38 L 364.00 645.00 L 373.43 645.00 L 382.87 645.00 L 383.18 647.75 C383.46,650.16 383.87,650.46 386.50,650.16 C390.55,649.71 390.92,649.14 390.14,644.50 L 389.47 640.50 L 374.62 640.22 C364.52,640.03 359.33,640.31 358.39,641.10 C357.34,641.97 357.00,645.36 357.00,655.07 C357.00,666.23 357.23,668.03 358.75,668.92 C359.71,669.48 366.63,669.95 374.13,669.97 C384.89,669.99 388.01,669.69 388.97,668.54 ZM 439.13 668.35 C440.10,667.18 440.60,662.79 440.83,653.35 L 441.15 640.00 L 437.08 640.00 L 433.00 640.00 L 433.00 651.89 C433.00,661.82 432.74,663.89 431.42,664.39 C429.36,665.18 420.12,665.17 416.12,664.38 L 413.00 663.75 L 413.00 651.88 L 413.00 640.00 L 408.92 640.00 L 404.85 640.00 L 405.17 653.58 C405.46,665.66 405.72,667.32 407.44,668.58 C408.90,669.65 412.91,670.00 423.57,670.00 C435.53,670.00 437.97,669.74 439.13,668.35 ZM 463.80 664.25 L 464.10 659.00 L 467.84 659.00 C471.03,659.00 472.34,659.79 477.00,664.50 C481.59,669.15 482.99,670.00 486.05,670.00 C488.04,670.00 490.00,669.67 490.41,669.26 C490.82,668.85 488.75,666.39 485.82,663.79 C480.94,659.45 480.71,659.06 483.03,659.03 C484.42,659.01 486.56,658.30 487.78,657.44 C489.70,656.10 490.00,654.98 490.00,649.14 C490.00,645.23 489.50,641.90 488.80,641.20 C487.97,640.37 482.87,640.00 472.30,640.00 L 457.00 640.00 L 457.00 655.06 L 457.00 670.13 L 460.25 669.81 C463.42,669.51 463.51,669.37 463.80,664.25 ZM 512.00 655.00 L 512.00 640.00 L 508.50 640.00 L 505.00 640.00 L 505.00 655.00 L 505.00 670.00 L 508.50 670.00 L 512.00 670.00 L 512.00 655.00 ZM 542.00 657.50 L 542.00 645.00 L 549.50 645.00 C556.83,645.00 557.00,644.94 557.00,642.50 L 557.00 640.00 L 539.00 640.00 L 521.00 640.00 L 521.00 642.50 C521.00,644.93 521.20,645.00 528.00,645.00 L 535.00 645.00 L 535.00 657.50 L 535.00 670.00 L 538.50 670.00 L 542.00 670.00 L 542.00 657.50 ZM 581.05 663.25 L 581.09 656.50 L 588.52 648.50 L 595.95 640.50 L 592.22 640.17 C588.82,639.87 588.05,640.32 583.30,645.41 L 578.10 650.98 L 573.36 645.49 C568.82,640.23 568.41,640.00 563.72,640.00 L 558.83 640.00 L 566.41 648.17 L 574.00 656.33 L 574.00 663.17 L 574.00 670.00 L 577.50 670.00 L 581.00 670.00 L 581.05 663.25 ZM 661.44 667.78 C663.33,665.09 663.52,656.08 661.75,653.71 C660.73,652.34 658.33,651.99 648.50,651.77 L 636.50 651.50 L 636.19 648.25 L 635.87 645.00 L 645.94 645.00 C654.22,645.00 656.00,645.27 656.00,646.50 C656.00,648.16 656.44,648.26 659.80,647.36 C661.68,646.85 662.05,646.16 661.80,643.62 L 661.50 640.50 L 646.51 640.22 C633.28,639.98 631.37,640.15 630.26,641.66 C628.75,643.73 628.60,651.38 630.01,654.02 C631.44,656.69 637.08,657.99 647.25,657.99 L 656.00 658.00 L 656.00 660.89 C656.00,664.55 654.78,665.00 644.92,665.00 C638.31,665.00 636.67,664.67 634.98,662.98 C633.56,661.56 632.24,661.15 630.48,661.59 C627.63,662.31 627.29,664.55 629.56,667.78 C631.04,669.90 631.77,670.00 645.50,670.00 C659.23,670.00 659.96,669.90 661.44,667.78 ZM 693.00 663.22 L 693.00 656.45 L 700.50 649.00 C704.62,644.90 708.00,641.20 708.00,640.78 C708.00,640.35 706.23,640.00 704.08,640.00 C700.55,640.00 699.67,640.56 695.37,645.60 L 690.59 651.19 L 685.55 645.52 C680.66,640.03 680.36,639.86 676.00,640.17 L 671.50 640.50 L 678.75 648.08 L 686.00 655.65 L 686.00 662.83 L 686.00 670.00 L 689.50 670.00 L 693.00 670.00 L 693.00 663.22 ZM 750.44 667.78 C752.33,665.09 752.52,656.08 750.75,653.71 C749.73,652.34 747.33,651.99 737.50,651.77 L 725.50 651.50 L 725.19 648.25 L 724.87 645.00 L 734.94 645.00 C743.22,645.00 745.00,645.27 745.00,646.50 C745.00,648.15 745.44,648.26 748.75,647.37 C750.20,646.98 750.99,646.01 750.98,644.63 C750.95,640.13 750.19,639.93 734.46,640.22 L 719.57 640.50 L 718.69 644.25 C718.17,646.42 718.17,649.58 718.68,651.75 C719.83,656.61 723.29,657.87 735.75,657.94 L 745.00 658.00 L 745.00 660.89 C745.00,664.50 743.74,665.00 734.67,664.99 C726.17,664.97 723.00,664.26 723.00,662.38 C723.00,660.85 722.53,660.75 719.25,661.63 C716.62,662.33 716.36,664.64 718.56,667.78 C720.04,669.90 720.77,670.00 734.50,670.00 C748.23,670.00 748.96,669.90 750.44,667.78 ZM 781.00 657.50 L 781.00 645.00 L 788.00 645.00 C794.80,645.00 795.00,644.93 795.00,642.50 L 795.00 640.00 L 777.50 640.00 L 760.00 640.00 L 760.00 642.50 C760.00,644.93 760.20,645.00 767.00,645.00 L 774.00 645.00 L 774.00 657.50 L 774.00 670.00 L 777.50 670.00 L 781.00 670.00 L 781.00 657.50 ZM 836.00 667.50 C836.00,665.01 835.98,665.00 826.25,664.99 C814.32,664.97 812.33,664.49 811.75,661.47 C811.05,657.80 812.10,657.13 819.03,656.80 C824.87,656.53 825.53,656.28 825.82,654.25 C826.13,652.10 825.83,652.00 819.07,652.00 L 812.00 652.00 L 812.00 648.53 L 812.00 645.06 L 823.75 644.78 C835.08,644.51 835.51,644.42 835.82,642.25 L 836.14 640.00 L 820.07 640.00 L 804.00 640.00 L 804.00 655.00 L 804.00 670.00 L 820.00 670.00 L 836.00 670.00 L 836.00 667.50 ZM 856.00 660.42 C856.00,655.13 856.41,650.98 856.90,651.17 C857.40,651.35 860.21,654.62 863.15,658.42 C866.09,662.23 869.00,665.51 869.60,665.71 C870.21,665.91 873.26,662.68 876.38,658.53 C879.50,654.39 882.49,651.00 883.02,651.00 C883.59,651.00 884.00,654.99 884.00,660.50 L 884.00 670.00 L 887.00 670.00 L 890.00 670.00 L 890.00 654.94 L 890.00 639.87 L 886.79 640.19 C884.11,640.45 882.57,641.81 877.44,648.45 C874.06,652.82 870.89,656.52 870.40,656.67 C869.90,656.82 866.58,653.13 863.00,648.48 C857.21,640.94 856.14,640.02 853.25,640.01 L 850.00 640.00 L 850.00 655.00 L 850.00 670.00 L 853.00 670.00 L 856.00 670.00 L 856.00 660.42 ZM 937.43 668.43 C939.44,666.42 939.64,654.77 937.69,653.16 C936.95,652.54 931.14,651.94 924.44,651.78 L 912.50 651.50 L 912.19 648.25 L 911.87 645.00 L 921.83 645.00 C929.95,645.00 931.90,645.29 932.39,646.57 C932.81,647.67 933.66,647.93 935.25,647.46 C938.67,646.42 939.17,645.57 938.06,642.66 L 937.05 640.00 L 922.65 640.00 C911.46,640.00 907.98,640.32 907.07,641.41 C906.37,642.26 906.02,645.35 906.20,649.16 C906.50,655.42 906.54,655.52 910.00,656.69 C911.92,657.35 917.69,657.91 922.81,657.94 L 932.13 658.00 L 931.81 661.25 L 931.50 664.50 L 923.50 664.80 C914.21,665.14 911.00,664.55 911.00,662.48 C911.00,660.88 909.81,660.68 906.18,661.65 C904.26,662.16 903.96,662.73 904.48,664.89 C905.59,669.49 907.33,670.00 922.12,670.00 C933.27,670.00 936.15,669.70 937.43,668.43 ZM 1008.00 664.65 L 1008.00 659.31 L 1019.61 658.68 C1026.00,658.34 1031.85,657.54 1032.61,656.91 C1033.53,656.15 1034.00,653.61 1034.00,649.46 C1034.00,639.42 1035.06,640.00 1016.89,640.00 L 1001.00 640.00 L 1001.00 655.00 L 1001.00 670.00 L 1004.50 670.00 L 1008.00 670.00 L 1008.00 664.65 ZM 1068.91 655.48 C1073.36,647.49 1077.00,640.79 1077.00,640.59 C1077.00,639.67 1072.50,639.20 1071.09,639.98 C1070.21,640.46 1067.25,645.15 1064.50,650.41 C1061.75,655.67 1059.05,659.84 1058.50,659.68 C1057.95,659.52 1055.09,655.02 1052.14,649.69 C1046.78,640.02 1046.77,640.00 1042.89,640.00 C1040.75,640.00 1039.00,640.26 1039.00,640.57 C1039.00,641.24 1053.81,666.89 1055.27,668.75 C1055.80,669.44 1057.27,670.00 1058.53,670.00 C1060.44,670.00 1062.17,667.59 1068.91,655.48 ZM 1101.00 657.50 L 1101.00 645.00 L 1108.00 645.00 C1114.80,645.00 1115.00,644.93 1115.00,642.50 L 1115.00 640.00 L 1096.93 640.00 L 1078.86 640.00 L 1079.18 642.25 C1079.47,644.31 1080.10,644.52 1086.75,644.79 L 1094.00 645.09 L 1094.00 657.54 L 1094.00 670.00 L 1097.50 670.00 L 1101.00 670.00 L 1101.00 657.50 ZM 1178.00 667.50 L 1178.00 665.00 L 1167.57 665.00 C1153.88,665.00 1154.00,665.13 1154.00,650.93 L 1154.00 640.00 L 1150.50 640.00 L 1147.00 640.00 L 1147.00 655.00 L 1147.00 670.00 L 1162.50 670.00 L 1178.00 670.00 L 1178.00 667.50 ZM 1195.22 657.75 L 1195.50 645.50 L 1202.75 645.21 C1209.70,644.92 1210.00,644.81 1210.00,642.46 L 1210.00 640.00 L 1192.00 640.00 L 1174.00 640.00 L 1174.00 642.50 C1174.00,644.93 1174.20,645.00 1181.00,645.00 L 1188.00 645.00 L 1188.00 656.83 C1188.00,663.34 1188.30,668.97 1188.67,669.33 C1189.03,669.70 1190.59,670.00 1192.14,670.00 L 1194.94 670.00 L 1195.22 657.75 ZM 1247.80 668.60 C1249.28,667.82 1251.62,665.99 1253.00,664.51 C1255.20,662.16 1255.50,660.95 1255.50,654.44 C1255.50,647.42 1255.33,646.87 1252.23,643.77 L 1248.97 640.50 L 1233.98 640.18 L 1219.00 639.86 L 1219.00 654.93 L 1219.00 670.00 L 1232.05 670.00 C1241.31,670.00 1245.88,669.59 1247.80,668.60 ZM 518.00 559.78 C535.89,551.19 549.59,527.31 546.07,510.89 C543.61,499.40 537.77,494.56 526.41,494.56 C520.20,494.56 518.32,495.03 511.76,498.27 C502.22,502.99 493.68,511.82 488.47,522.36 C485.37,528.64 484.71,531.15 484.26,538.36 C483.77,546.20 483.95,547.37 486.41,552.41 C492.05,563.93 503.70,566.65 518.00,559.78 ZM 538.50 454.48 C551.35,448.17 562.57,433.36 565.19,419.24 C566.19,413.85 566.11,412.19 564.60,407.41 C562.46,400.61 557.41,394.79 552.16,393.05 C549.86,392.29 545.41,391.92 541.37,392.16 C527.06,392.99 512.50,403.53 505.00,418.51 C501.72,425.05 501.50,426.12 501.50,435.16 C501.50,444.29 501.67,445.07 504.50,449.09 C506.15,451.43 509.52,454.43 512.00,455.75 C518.51,459.22 529.97,458.67 538.50,454.48 ZM 565.12 362.75 C574.41,359.37 580.68,355.48 586.65,349.38 C603.40,332.27 600.46,310.13 580.53,303.29 C573.93,301.02 560.52,301.10 552.50,303.45 C528.36,310.52 512.64,331.37 518.40,348.69 C523.33,363.53 545.02,370.06 565.12,362.75 ZM 461.65 355.61 C483.32,349.83 499.88,327.25 491.90,314.34 C484.68,302.66 460.77,306.10 445.87,320.97 C438.46,328.37 435.64,333.90 435.56,341.17 C435.49,348.06 437.61,351.48 444.02,354.75 C449.06,357.32 454.25,357.58 461.65,355.61 ZM 690.36 350.41 C704.92,346.64 715.61,338.60 721.23,327.19 C724.19,321.17 724.50,319.69 724.50,311.50 C724.50,303.31 724.19,301.83 721.23,295.81 C713.78,280.68 697.72,271.64 678.50,271.76 C658.77,271.88 643.02,281.07 635.25,297.00 C632.95,301.72 632.57,303.77 632.57,311.50 C632.57,319.39 632.93,321.24 635.47,326.50 C644.50,345.14 669.17,355.89 690.36,350.41 ZM 388.07 344.39 C400.21,340.79 411.22,333.04 415.98,324.74 C421.27,315.50 419.09,308.74 410.40,307.43 C393.31,304.87 367.00,322.35 367.00,336.27 C367.00,344.48 376.03,347.96 388.07,344.39 ZM 825.38 301.71 C837.73,297.12 846.42,289.86 851.73,279.71 C854.16,275.05 854.45,273.45 854.45,264.50 C854.45,255.11 854.24,254.10 851.10,248.03 C847.12,240.34 837.72,230.64 830.00,226.27 C826.97,224.55 820.90,221.89 816.50,220.35 C809.19,217.80 807.26,217.56 794.00,217.54 C778.53,217.51 774.30,218.37 763.58,223.74 C756.65,227.21 748.50,235.29 745.25,241.89 C742.81,246.88 742.50,248.61 742.50,257.50 C742.50,266.45 742.80,268.10 745.32,273.25 C750.97,284.75 763.39,295.22 777.86,300.68 C787.84,304.44 791.32,304.93 805.50,304.58 C816.47,304.31 819.57,303.86 825.38,301.71 ZM 603.04 269.16 C622.95,262.31 635.00,249.49 635.00,235.18 C635.00,230.12 634.51,228.50 631.75,224.38 C626.34,216.32 616.07,212.00 602.33,212.00 C576.91,212.00 553.67,228.95 553.66,247.50 C553.66,251.10 554.30,254.74 555.28,256.60 C558.52,262.80 568.01,269.15 577.00,271.13 C582.49,272.34 596.97,271.25 603.04,269.16 ZM 849.14 203.56 C866.36,199.91 874.56,189.46 869.58,177.53 C861.83,158.99 824.67,148.71 803.50,159.24 C784.99,168.44 789.39,187.97 812.35,198.50 C825.05,204.33 837.46,206.03 849.14,203.56 ZM 663.23 198.07 C672.35,195.74 682.68,190.66 689.67,185.08 C699.65,177.12 705.39,164.68 703.09,156.01 C699.48,142.42 687.48,135.69 666.94,135.76 C654.24,135.79 646.40,137.59 635.50,142.94 C606.10,157.39 601.11,185.27 625.95,196.31 C632.62,199.28 635.46,199.78 646.09,199.90 C652.59,199.97 658.11,199.38 663.23,198.07 ZM 768.63 153.64 C777.42,149.62 782.15,144.45 782.75,138.23 C783.54,130.06 779.49,124.84 768.44,119.80 C764.07,117.81 761.87,117.54 749.50,117.52 C732.15,117.49 727.09,119.01 719.25,126.56 C714.43,131.20 714.00,131.98 714.00,136.16 C714.00,144.25 720.65,151.02 732.50,154.98 C737.43,156.63 740.64,156.94 750.50,156.72 C761.19,156.47 763.17,156.14 768.63,153.64 ZM 843.78 141.47 C849.07,139.35 854.00,133.88 854.00,130.11 C854.00,118.75 831.96,109.71 815.82,114.44 C795.87,120.28 799.20,136.85 821.50,142.65 C827.68,144.26 838.19,143.71 843.78,141.47 ZM 898.86 137.07 C903.56,134.67 907.00,130.61 907.00,127.44 C907.00,121.25 897.61,116.00 886.57,116.01 C878.50,116.01 873.68,117.47 869.47,121.16 C862.11,127.63 866.50,135.48 879.50,139.09 C884.17,140.38 894.48,139.31 898.86,137.07 ZM 943.32 136.88 C950.78,133.03 952.41,126.21 946.97,121.63 C937.15,113.36 918.86,120.18 922.57,130.73 C924.57,136.40 937.05,140.10 943.32,136.88 ZM 831.85 101.07 C839.56,97.14 837.82,90.45 828.47,88.10 C814.06,84.47 796.24,89.98 799.96,96.92 C801.16,99.16 805.77,101.88 810.50,103.13 C815.67,104.50 827.35,103.37 831.85,101.07 ZM 813.91 80.93 C831.13,77.23 824.76,64.78 806.40,66.26 C798.20,66.91 793.50,69.55 793.50,73.50 C793.50,77.53 798.29,80.26 808.20,81.89 C808.59,81.95 811.16,81.52 813.91,80.93 ZM 1004.00 719.95 C1004.00,715.75 1011.32,706.25 1013.88,707.14 C1016.09,707.91 1007.58,722.00 1004.91,722.00 C1004.41,722.00 1004.00,721.08 1004.00,719.95 ZM 870.00 715.15 C870.00,713.74 874.41,707.69 875.75,707.24 C877.96,706.52 877.11,710.98 874.55,713.55 C872.08,716.01 870.00,716.74 870.00,715.15 ZM 1090.00 714.75 C1090.01,712.53 1093.92,707.00 1095.49,707.00 C1097.83,707.00 1097.29,710.80 1094.55,713.55 C1091.87,716.22 1090.00,716.72 1090.00,714.75 ZM 1166.57 722.43 C1164.60,720.46 1164.60,718.90 1166.54,714.25 C1168.49,709.59 1170.82,707.00 1173.07,707.00 C1175.49,707.00 1175.89,708.82 1174.39,712.98 C1173.70,714.92 1172.87,717.72 1172.55,719.22 C1171.78,722.87 1168.68,724.54 1166.57,722.43 ZM 1230.41 721.62 C1229.56,719.41 1231.74,714.36 1235.31,710.30 C1240.42,704.48 1241.64,706.84 1237.61,714.78 C1236.29,717.38 1234.28,720.35 1233.13,721.39 C1231.23,723.10 1230.98,723.12 1230.41,721.62 ZM 464.00 649.04 L 464.00 645.00 L 473.56 645.00 L 483.12 645.00 L 482.81 648.75 L 482.50 652.50 L 473.25 652.79 L 464.00 653.08 L 464.00 649.04 ZM 1008.70 652.37 C1008.32,651.98 1008.00,650.17 1008.00,648.33 L 1008.00 645.00 L 1017.56 645.00 L 1027.12 645.00 L 1026.81 648.75 L 1026.50 652.50 L 1017.95 652.79 C1013.25,652.94 1009.09,652.76 1008.70,652.37 ZM 1226.74 664.41 C1226.33,664.00 1226.00,659.47 1226.00,654.33 L 1226.00 645.00 L 1233.95 645.00 C1242.92,645.00 1246.28,646.12 1247.89,649.66 C1249.86,653.97 1249.23,657.92 1246.08,661.08 C1243.63,663.52 1242.34,664.00 1238.20,664.00 C1235.48,664.00 1231.95,664.26 1230.37,664.58 C1228.78,664.89 1227.15,664.82 1226.74,664.41 Z" fill="rgb(254,254,254)"/>
</g>
</svg>